<svg xmlns="http://www.w3.org/2000/svg" width="2337.144" height="1378.602" viewBox="0 0 2337.144 1378.602"><g transform="translate(231 187)"><g transform="translate(1358 384)" fill="#6e5df2" stroke="#707070" stroke-width="1" opacity="0.096"><ellipse cx="109.5" cy="100.5" rx="109.5" ry="100.5" stroke="none"/><ellipse cx="109.5" cy="100.5" rx="109" ry="100" fill="none"/></g><path d="M27.557,12a7,7,0,1,0,7,7A7.009,7.009,0,0,0,27.557,12Zm0,12a5,5,0,1,1,5-5A5.006,5.006,0,0,1,27.557,24Z" transform="translate(1179.024 356.711)" fill="#fff"/><path d="M29.543,3.077A13.706,13.706,0,0,0,20.7,0a13.7,13.7,0,0,0-8.839,3.077,10.529,10.529,0,0,0-1.176,14.766L20.7,30l10-12.139A10.533,10.533,0,0,0,29.543,3.077Zm.1,14.143L20.7,28.075,11.746,17.2a9.513,9.513,0,0,1,1.04-13.351A12.275,12.275,0,0,1,20.7,1.1a12.278,12.278,0,0,1,7.918,2.756A9.517,9.517,0,0,1,29.647,17.22Z" transform="translate(1185.797 364)" fill="#fff"/><path d="M1.735,18.7a3.61,3.61,0,0,0,.519.3c.216.111.578.3.6.425a.869.869,0,0,1-.059.507c-.074.16-.152.3-.22.416-.183.324-.489.866-.027,1.243.108.1.294.245.464.375a1.26,1.26,0,0,0-.162.722.722.722,0,0,0,.3.492c.111.078.229.146.346.213.3.168.411.247.45.4a1.379,1.379,0,0,1-.05.6c-.029.134-.058.268-.075.4a2.978,2.978,0,0,0,.164,1.347A1.872,1.872,0,0,0,5.751,27.5a2.007,2.007,0,0,0,.41-.044A37.889,37.889,0,0,0,10.373,26.2c1.126.661,1.837,2.671,2.022,3.426a.5.5,0,0,0,.485.38l12.541-.035a.5.5,0,0,0,.476-.65,3.861,3.861,0,0,0-.506-.95,4.67,4.67,0,0,1-.323-.541,9.423,9.423,0,0,1-.564-1.423,16.78,16.78,0,0,1-.591-2.959c-.014-.116-.026-.281-.036-.455.035,0,.069.01.1.01a2,2,0,1,0-1.12-.345c.009.328.031.682.059.91a17.839,17.839,0,0,0,.63,3.137,10.484,10.484,0,0,0,.62,1.565,5.548,5.548,0,0,0,.387.654l.033.05L13.258,29A7.968,7.968,0,0,0,11.5,25.811l.45-.158c.335-.117.587-.205.716-.247,2.14-.678,3.211-1.653,3.182-2.9a.5.5,0,1,0-1,.024c.012.515-.409,1.265-2.486,1.923-.135.044-.4.135-.742.256-.371.13-.843.3-1.364.472h0a38.856,38.856,0,0,1-4.3,1.3.884.884,0,0,1-1.025-.667,1.99,1.99,0,0,1-.117-.892c.013-.105.037-.209.06-.314a2.19,2.19,0,0,0,.043-1.064,1.658,1.658,0,0,0-.925-1.023l-.1-.059a1.875,1.875,0,0,1,.192-.309.5.5,0,0,0-.1-.712c-.12-.088-.4-.3-.61-.467.024-.044.05-.092.075-.135.078-.138.168-.3.255-.483a1.876,1.876,0,0,0,.133-1.119c-.12-.61-.7-.909-1.13-1.127a2.894,2.894,0,0,1-.412-.24,2.166,2.166,0,0,1-.3-.243c0-.076.081-.26.462-.724a20.189,20.189,0,0,0,2.288-3.718,1.489,1.489,0,0,0,.192-.676,1.75,1.75,0,0,0-.73-1.25c-.2-.186-.392-.361-.415-.524a.9.9,0,0,1,.078-.342c.081-.215.175-.425.27-.635a7.309,7.309,0,0,0,.489-1.319l.05-.213A12.509,12.509,0,0,1,5.09,6.753,8.576,8.576,0,0,1,6.883,3.822a8.237,8.237,0,0,1,4.479-2.13,32.451,32.451,0,0,1,4.688-.676,11.669,11.669,0,0,1,3.647.465,6.956,6.956,0,0,0-2.381,3.394,2,2,0,1,0,3.8,1.235A3,3,0,1,1,23.949,10a2.021,2.021,0,0,0-1.409.563,1.862,1.862,0,0,0-.557,1.332V16a2,2,0,1,0,4,0V13.712A7,7,0,1,0,20.8.785,13,13,0,0,0,16,.018a33.321,33.321,0,0,0-4.833.694A9.084,9.084,0,0,0,6.156,3.135a9.582,9.582,0,0,0-2,3.272A13.572,13.572,0,0,0,3.71,8l-.05.211a6.528,6.528,0,0,1-.427,1.139c-.1.228-.2.456-.293.692a1.671,1.671,0,0,0-.132.836A1.911,1.911,0,0,0,3.535,12c.244.224.4.382.407.52a.823.823,0,0,1-.085.217,19.346,19.346,0,0,1-2.186,3.556,2.076,2.076,0,0,0-.662,1.471A1.528,1.528,0,0,0,1.735,18.7ZM23.982,20a1,1,0,1,1-1,1A1,1,0,0,1,23.982,20ZM24.667,1.04a6,6,0,0,1,.7,11.8.5.5,0,0,0-.385.487V16a1,1,0,1,1-2,0V11.9a.867.867,0,0,1,.259-.621A.988.988,0,0,1,23.966,11h.016a3.952,3.952,0,0,0,3.961-3.446,4,4,0,0,0-7.779-1.744.994.994,0,0,1-1.749.282,1.015,1.015,0,0,1-.146-.916A6.03,6.03,0,0,1,24.667,1.04Z" transform="translate(1191.002 587.495)" fill="#fff"/><path d="M12.167,17.793l.1-.445a22.276,22.276,0,0,1,.667-2.458,13.176,13.176,0,0,1,2.744-4.5,10.47,10.47,0,0,1,4.609-2.531A1,1,0,1,0,19.7,5.946a12.384,12.384,0,0,0-5.481,3.071A15.181,15.181,0,0,0,11.061,14.2a23.834,23.834,0,0,0-.741,2.709l-.1.433a1,1,0,0,0,.747,1.2.983.983,0,0,0,.227.026A1,1,0,0,0,12.167,17.793Z" transform="translate(1187.715 587.495)" fill="#fff"/><circle cx="1" cy="1" r="1" transform="translate(1197.537 596.591)" fill="#fff"/><rect width="206" height="52" rx="8" transform="translate(1488 55)" fill="none"/><path d="M27.557,12a7,7,0,1,0,7,7A7.009,7.009,0,0,0,27.557,12Zm0,12a5,5,0,1,1,5-5A5.006,5.006,0,0,1,27.557,24Z" transform="translate(1179.039 472.711)" fill="#fff"/><path d="M31.25,3.077A15.558,15.558,0,0,0,21.7,0a15.557,15.557,0,0,0-9.547,3.077,10,10,0,0,0-1.27,14.766L21.7,30,32.5,17.861A10,10,0,0,0,31.25,3.077Zm.112,14.143L21.7,28.075,12.03,17.2A9.031,9.031,0,0,1,13.154,3.852,13.934,13.934,0,0,1,21.7,1.1a13.938,13.938,0,0,1,8.551,2.756A9.035,9.035,0,0,1,31.362,17.22Z" transform="translate(1184.797 480)" fill="#fff"/><line x2="148" y2="368" transform="translate(18.5 564.5)" fill="none" stroke="rgba(110,93,242,0.5)" stroke-width="1"/><line y1="177" x2="186" transform="translate(-25.5 932.5)" fill="none" stroke="rgba(110,93,242,0.5)" stroke-width="1"/><g transform="translate(880 59)" fill="#007bff" stroke="#707070" stroke-width="1" opacity="0.096"><ellipse cx="160" cy="135" rx="160" ry="135" stroke="none"/><ellipse cx="160" cy="135" rx="159.5" ry="134.5" fill="none"/></g><g transform="translate(547 447)" fill="#007bff" stroke="#707070" stroke-width="1" opacity="0.081"><ellipse cx="123" cy="102.5" rx="123" ry="102.5" stroke="none"/><ellipse cx="123" cy="102.5" rx="122.5" ry="102" fill="none"/></g><g transform="translate(920 704)" fill="#007bff" stroke="#707070" stroke-width="1" opacity="0.096"><ellipse cx="205" cy="181.5" rx="205" ry="181.5" stroke="none"/><ellipse cx="205" cy="181.5" rx="204.5" ry="181" fill="none"/></g><g transform="translate(166 854)" fill="#007bff" stroke="#707070" stroke-width="1" opacity="0.096"><ellipse cx="109.5" cy="100.5" rx="109.5" ry="100.5" stroke="none"/><ellipse cx="109.5" cy="100.5" rx="109" ry="100" fill="none"/></g><g transform="translate(1725 260)" fill="#007bff" stroke="#707070" stroke-width="1" opacity="0.096"><ellipse cx="174.5" cy="154.5" rx="174.5" ry="154.5" stroke="none"/><ellipse cx="174.5" cy="154.5" rx="174" ry="154" fill="none"/></g><g transform="translate(71 -187)" fill="#007bff" opacity="0.096"><path d="M 205 362.5 C 191.120849609375 362.5 177.2505493164062 361.2620544433594 163.7745056152344 358.8205871582031 C 150.6416473388672 356.4412536621094 137.7239074707031 352.8910522460938 125.3800964355469 348.2685852050781 C 113.2611465454102 343.7302856445312 101.5726470947266 338.1133117675781 90.63919830322266 331.5735473632812 C 79.81060028076172 325.0964965820312 69.62809753417969 317.6582946777344 60.37454986572266 309.4655456542969 C 51.12210083007812 301.2737121582031 42.72225189208984 292.2601013183594 35.40829849243164 282.675048828125 C 28.02519989013672 272.9994506835938 21.68404960632324 262.6560974121094 16.56110000610352 251.9324493408203 C 11.3439998626709 241.0118560791016 7.337200164794922 229.5838470458984 4.652050018310547 217.9660034179688 C 1.896950006484985 206.045654296875 0.5 193.7767028808594 0.5 181.5 C 0.5 169.2232971191406 1.896950006484985 156.9544067382812 4.652050018310547 145.0339965820312 C 7.337200164794922 133.4161529541016 11.3439998626709 121.9881973266602 16.56110000610352 111.0675506591797 C 21.68404960632324 100.3439025878906 28.02519989013672 90.00060272216797 35.40829849243164 80.324951171875 C 42.72225189208984 70.73989868164062 51.12210083007812 61.72629928588867 60.37454986572266 53.53450012207031 C 69.62809753417969 45.34170150756836 79.81060028076172 37.90349960327148 90.63919830322266 31.42645072937012 C 101.5726470947266 24.88669967651367 113.2611465454102 19.26969909667969 125.3800964355469 14.73139953613281 C 137.7239074707031 10.10894966125488 150.6416473388672 6.558750152587891 163.7745056152344 4.179450035095215 C 177.2505493164062 1.737949967384338 191.120849609375 0.5 205 0.5 C 218.879150390625 0.5 232.7494506835938 1.737949967384338 246.2254943847656 4.179450035095215 C 259.3583374023438 6.558750152587891 272.2760925292969 10.10894966125488 284.6199035644531 14.73139953613281 C 296.7388610839844 19.26969909667969 308.4273376464844 24.88669967651367 319.3608093261719 31.42645072937012 C 330.1893920898438 37.90349960327148 340.3718872070312 45.34170150756836 349.6254577636719 53.53450012207031 C 358.8778991699219 61.72629928588867 367.2777404785156 70.73989868164062 374.5917053222656 80.324951171875 C 381.9747924804688 90.00060272216797 388.3159484863281 100.3439025878906 393.4389038085938 111.0675506591797 C 398.656005859375 121.9881973266602 402.6628112792969 133.4161529541016 405.3479614257812 145.0339965820312 C 408.1030578613281 156.9544067382812 409.5 169.2232971191406 409.5 181.5 C 409.5 193.7767028808594 408.1030578613281 206.045654296875 405.3479614257812 217.9660034179688 C 402.6628112792969 229.5838470458984 398.656005859375 241.0118560791016 393.4389038085938 251.9324493408203 C 388.3159484863281 262.6560974121094 381.9747924804688 272.9994506835938 374.5917053222656 282.675048828125 C 367.2777404785156 292.2601013183594 358.8778991699219 301.2737121582031 349.6254577636719 309.4655456542969 C 340.3718872070312 317.6582946777344 330.1893920898438 325.0964965820312 319.3608093261719 331.5735473632812 C 308.4273376464844 338.1133117675781 296.7388610839844 343.7302856445312 284.6199035644531 348.2685852050781 C 272.2760925292969 352.8910522460938 259.3583374023438 356.4412536621094 246.2254943847656 358.8205871582031 C 232.7494506835938 361.2620544433594 218.879150390625 362.5 205 362.5 Z" stroke="none"/><path d="M 205 1 C 191.150634765625 1 177.3103637695312 2.235260009765625 163.8636322021484 4.671417236328125 C 150.7600402832031 7.04541015625 137.8713073730469 10.587646484375 125.555419921875 15.19967651367188 C 113.4646911621094 19.72735595703125 101.8035278320312 25.33126831054688 90.89590454101562 31.85552978515625 C 80.09378051757812 38.31674194335938 69.93643188476562 45.73651123046875 60.70599365234375 53.90884399414062 C 51.47772216796875 62.0792236328125 43.10009765625 71.06890869140625 35.8057861328125 80.62826538085938 C 28.4434814453125 90.27664184570312 22.12042236328125 100.5903625488281 17.01226806640625 111.2830505371094 C 11.81085205078125 122.1708374023438 7.816162109375 133.564208984375 5.13922119140625 145.1466369628906 C 2.39263916015625 157.0301055908203 1 169.2611541748047 1 181.5 C 1 193.7388458251953 2.39263916015625 205.9698944091797 5.13922119140625 217.8533630371094 C 7.816162109375 229.435791015625 11.81085205078125 240.8291625976562 17.01226806640625 251.7169494628906 C 22.12042236328125 262.4096374511719 28.4434814453125 272.7233581542969 35.8057861328125 282.3717346191406 C 43.10009765625 291.9310913085938 51.47772216796875 300.9207763671875 60.70599365234375 309.0911560058594 C 69.93643188476562 317.2634887695312 80.09378051757812 324.6832580566406 90.89590454101562 331.1444702148438 C 101.8035278320312 337.6687316894531 113.4646911621094 343.2726440429688 125.555419921875 347.8003234863281 C 137.8713073730469 352.412353515625 150.7600402832031 355.95458984375 163.8636322021484 358.3285827636719 C 177.3103637695312 360.7647399902344 191.150634765625 362 205 362 C 218.849365234375 362 232.6896362304688 360.7647399902344 246.1363677978516 358.3285827636719 C 259.2399291992188 355.95458984375 272.128662109375 352.412353515625 284.444580078125 347.8003234863281 C 296.5353088378906 343.2726440429688 308.1964721679688 337.6687316894531 319.1040954589844 331.1444702148438 C 329.9062194824219 324.6832580566406 340.0635681152344 317.2634887695312 349.2940063476562 309.0911560058594 C 358.5222778320312 300.9207763671875 366.89990234375 291.9310913085938 374.1942138671875 282.3717346191406 C 381.5565185546875 272.7233581542969 387.8795776367188 262.4096374511719 392.9877319335938 251.7169494628906 C 398.1891479492188 240.8291625976562 402.183837890625 229.435791015625 404.8607788085938 217.8533630371094 C 407.6073608398438 205.9698944091797 409 193.7388458251953 409 181.5 C 409 169.2611541748047 407.6073608398438 157.0301055908203 404.8607788085938 145.1466369628906 C 402.183837890625 133.564208984375 398.1891479492188 122.1708374023438 392.9877319335938 111.2830505371094 C 387.8795776367188 100.5903625488281 381.5565185546875 90.27664184570312 374.1942138671875 80.62826538085938 C 366.89990234375 71.06890869140625 358.5222778320312 62.0792236328125 349.2940063476562 53.90884399414062 C 340.0635681152344 45.73651123046875 329.9062194824219 38.31674194335938 319.1040954589844 31.85552978515625 C 308.1964721679688 25.33126831054688 296.5353088378906 19.72735595703125 284.444580078125 15.19967651367188 C 272.128662109375 10.587646484375 259.2399291992188 7.04541015625 246.1363677978516 4.671417236328125 C 232.6896362304688 2.235260009765625 218.849365234375 1 205 1 M 205 0 C 318.2183837890625 0 410 81.26031494140625 410 181.5 C 410 281.7396850585938 318.2183837890625 363 205 363 C 91.78164672851562 363 0 281.7396850585938 0 181.5 C 0 81.26031494140625 91.78164672851562 0 205 0 Z" stroke="none" fill="#707070"/></g><g transform="translate(534 185)" fill="#007bff" stroke="#707070" stroke-width="1" opacity="0.096"><ellipse cx="81" cy="75" rx="81" ry="75" stroke="none"/><ellipse cx="81" cy="75" rx="80.5" ry="74.5" fill="none"/></g><g transform="translate(-231 201)" fill="#007bff" stroke="#707070" stroke-width="1" opacity="0.096"><ellipse cx="205" cy="181.5" rx="205" ry="181.5" stroke="none"/><ellipse cx="205" cy="181.5" rx="204.5" ry="181" fill="none"/></g><path d="M385,927.211,1137.422,1038l602.849-153.67,126.97-348.351h238l-192.3-308.006L1984.8-65.366,1086.266,30.98,777.508-36.55" transform="translate(0 29)" fill="none" stroke="rgba(0,123,255,0.5)" stroke-width="1"/><path d="M953.241,725.2,751.524,582.736,953.241,349.1l-263.5-95.47" transform="translate(6.759 35.797)" fill="none" stroke="rgba(0,123,255,0.5)" stroke-width="1"/><line x1="257" y1="49" transform="translate(290.5 176.5)" fill="none" stroke="rgba(0,123,255,0.5)" stroke-width="1"/><line y1="132" x2="125" transform="translate(151.5 176.5)" fill="none" stroke="rgba(0,123,255,0.5)" stroke-width="1"/><line y1="156" x2="68" transform="translate(628.5 29.5)" fill="none" stroke="rgba(0,123,255,0.5)" stroke-width="1"/><line x1="192" y1="198" transform="translate(1755.5 980.5)" fill="none" stroke="rgba(110,93,242,0.5)" stroke-width="1"/><line x1="34" y1="119" transform="translate(628.5 328.5)" fill="none" stroke="rgba(110,93,242,0.5)" stroke-width="1"/><path d="M11.628,63.987H26.24V132.12H48.165V73.72H70.089v58.4h21.92V73.72h21.929v58.4h21.924V63.987H150.47c4.038,0,7.312-2.178,7.312-4.867,0-1.624-1.208-3.054-3.048-3.936l.013-.009-.109-.046-.189-.082L84.7,28.862V21.19c12.88,4.295,23.484-3.1,40.188,1.344V5.59C108.177,1.143,97.577,8.534,84.7,4.242V3.153C84.7,1.806,83.07.72,81.049.72S77.4,1.806,77.4,3.153V28.862L7.653,55.041l-.189.082-.1.052v.009c-1.832.882-3.036,2.315-3.036,3.936,0,2.689,3.27,4.867,7.3,4.867Zm7.3,73L4.32,146.72H157.786l-14.62-9.73Z" transform="translate(586.897 460.28)" fill="rgba(0,123,255,0.05)"/><path d="M127.872,58.5H99.64V7.313C99.64,3.272,97.411,0,94.658,0H64.766c-2.753,0-4.982,3.272-4.982,7.313V29.25H46.5V4.875C46.5,2.182,45.012,0,43.177,0H39.856c-1.835,0-3.321,2.182-3.321,4.875V29.25H23.249V4.875C23.249,2.182,21.763,0,19.928,0H16.607c-1.835,0-3.321,2.182-3.321,4.875V29.25h-8.3C2.229,29.25,0,32.522,0,36.563V146.25C0,151.634,2.975,156,6.643,156H126.211c3.668,0,6.643-4.366,6.643-9.75V65.813C132.854,61.772,130.622,58.5,127.872,58.5Zm-101.3,64.594c0,2.02-1.115,3.656-2.491,3.656h-8.3c-1.376,0-2.491-1.636-2.491-3.656V110.906c0-2.02,1.115-3.656,2.491-3.656h8.3c1.376,0,2.491,1.636,2.491,3.656Zm0-29.25c0,2.02-1.115,3.656-2.491,3.656h-8.3c-1.376,0-2.491-1.636-2.491-3.656V81.656c0-2.02,1.115-3.656,2.491-3.656h8.3c1.376,0,2.491,1.636,2.491,3.656Zm0-29.25c0,2.02-1.115,3.656-2.491,3.656h-8.3c-1.376,0-2.491-1.636-2.491-3.656V52.406c0-2.02,1.115-3.656,2.491-3.656h8.3c1.376,0,2.491,1.636,2.491,3.656Zm26.571,58.5c0,2.02-1.115,3.656-2.491,3.656h-8.3c-1.376,0-2.491-1.636-2.491-3.656V110.906c0-2.02,1.115-3.656,2.491-3.656h8.3c1.376,0,2.491,1.636,2.491,3.656Zm0-29.25c0,2.02-1.115,3.656-2.491,3.656h-8.3c-1.376,0-2.491-1.636-2.491-3.656V81.656c0-2.02,1.115-3.656,2.491-3.656h8.3c1.376,0,2.491,1.636,2.491,3.656Zm0-29.25c0,2.02-1.115,3.656-2.491,3.656h-8.3c-1.376,0-2.491-1.636-2.491-3.656V52.406c0-2.02,1.115-3.656,2.491-3.656h8.3c1.376,0,2.491,1.636,2.491,3.656Zm33.213,29.25c0,2.02-1.115,3.656-2.491,3.656h-8.3c-1.376,0-2.491-1.636-2.491-3.656V81.656c0-2.02,1.115-3.656,2.491-3.656h8.3c1.376,0,2.491,1.636,2.491,3.656Zm0-29.25c0,2.02-1.115,3.656-2.491,3.656h-8.3c-1.376,0-2.491-1.636-2.491-3.656V52.406c0-2.02,1.115-3.656,2.491-3.656h8.3c1.376,0,2.491,1.636,2.491,3.656Zm0-29.25c0,2.02-1.115,3.656-2.491,3.656h-8.3c-1.376,0-2.491-1.636-2.491-3.656V23.156c0-2.02,1.115-3.656,2.491-3.656h8.3c1.376,0,2.491,1.636,2.491,3.656Zm33.213,87.75c0,2.02-1.115,3.656-2.491,3.656h-8.3c-1.376,0-2.491-1.636-2.491-3.656V110.906c0-2.02,1.115-3.656,2.491-3.656h8.3c1.376,0,2.491,1.636,2.491,3.656Zm0-29.25c0,2.02-1.115,3.656-2.491,3.656h-8.3c-1.376,0-2.491-1.636-2.491-3.656V81.656c0-2.02,1.115-3.656,2.491-3.656h8.3c1.376,0,2.491,1.636,2.491,3.656Z" transform="translate(1038 809)" fill="rgba(0,123,255,0.1)"/><path d="M107,.563a106.75,106.75,0,1,0,107,106.75A106.873,106.873,0,0,0,107,.563Zm69.032,92.761v2.983a6.667,6.667,0,0,1-3.7,5.966l-6.64,3.314a6.694,6.694,0,0,1-6.7-.418l-7.857-5.226a6.709,6.709,0,0,0-5.825-.779l-1.143.379a6.662,6.662,0,0,0-3.447,10.029l5.712,8.549a6.687,6.687,0,0,0,5.561,2.97h3.542a6.68,6.68,0,0,1,6.688,6.672v4.881a6.669,6.669,0,0,1-1.337,4L152.8,147.4a6.7,6.7,0,0,0-1.221,2.768l-1.855,9.827a6.682,6.682,0,0,1-2.054,3.685,68.745,68.745,0,0,0-10.786,12.552l-5.622,8.415a11.986,11.986,0,0,1-20.671-1.283A33.9,33.9,0,0,1,107,168.173V155.307a6.68,6.68,0,0,0-6.687-6.672H89.147a23.542,23.542,0,0,1-23.57-23.515v-6.052A23.505,23.505,0,0,1,75,100.258l11.9-8.906a23.621,23.621,0,0,1,14.143-4.7h.384a23.567,23.567,0,0,1,10.54,2.484l6.351,3.168a6.7,6.7,0,0,0,5.1.362l20.412-6.788a6.669,6.669,0,0,0-2.114-13H137.37a6.693,6.693,0,0,1-4.729-1.954l-2.986-2.979a6.692,6.692,0,0,0-4.729-1.954H86.075a6.68,6.68,0,0,1-6.687-6.672V57.42a6.679,6.679,0,0,1,5.065-6.474l6.234-1.554A6.7,6.7,0,0,0,94.63,46.62l3.486-5.213a6.687,6.687,0,0,1,5.561-2.97h10.445a6.68,6.68,0,0,0,6.688-6.672V22.425a86.331,86.331,0,0,1,69.861,64.226H182.72A6.68,6.68,0,0,0,176.032,93.323Z" transform="translate(960 130.438)" fill="rgba(0,123,255,0.1)"/><path d="M138.381.563C61.954.563,0,65.857,0,146.406S61.954,292.25,138.381,292.25s138.381-65.294,138.381-145.844S214.809.563,138.381.563Zm-6.328,141.274a8.844,8.844,0,0,1-7.656,4.569h-.173a8.7,8.7,0,0,0-6.311,2.758l-3.158,3.329a4.888,4.888,0,0,0,0,6.651l3.158,3.329a9.674,9.674,0,0,1,2.617,6.651v5.51a9.176,9.176,0,0,1-8.928,9.409h-3.409a8.885,8.885,0,0,1-7.985-5.2l-12.622-26.6a4.346,4.346,0,0,0-7.148-1.223L69.576,162.461a8.7,8.7,0,0,1-6.311,2.758H28.351a123.5,123.5,0,0,1-1.568-18.813c0-64.853,50.063-117.616,111.6-117.616a105.937,105.937,0,0,1,34.389,5.775L144.781,57.224a4.834,4.834,0,0,0,.48,8.121l6.043,3.182a9.472,9.472,0,0,1,4.933,8.415v45.941a4.588,4.588,0,0,1-4.464,4.7h-1.707a4.438,4.438,0,0,1-3.99-2.6,2.415,2.415,0,0,0-4.33-.176l-9.692,17.025Zm95.606,64.806a9.674,9.674,0,0,1-2.617,6.651l-5.34,5.628a8.7,8.7,0,0,1-6.311,2.758h-8.459a8.7,8.7,0,0,1-6.311-2.758l-7.259-7.651a14.426,14.426,0,0,0-14.184-4.14L165.31,210.26a8.422,8.422,0,0,1-2.165.282h-5.77a8.7,8.7,0,0,1-6.311-2.758l-6.646-7a4.842,4.842,0,0,1-1.306-3.329v-6a4.714,4.714,0,0,1,2.807-4.369l21.951-9.256a14.74,14.74,0,0,0,3.119-1.794l13.23-9.933a4.3,4.3,0,0,1,2.589-.87h6.746a4.466,4.466,0,0,1,4.124,2.9l2.985,7.557a2.234,2.234,0,0,0,2.059,1.447h2.12a2.251,2.251,0,0,0,2.143-1.694l2.344-8.51a2.249,2.249,0,0,1,2.143-1.694h3.381a2.294,2.294,0,0,1,2.232,2.352v7.6a4.842,4.842,0,0,0,1.306,3.329l6.646,7a9.674,9.674,0,0,1,2.617,6.651v14.467Z" transform="translate(-140.263 239.75)" fill="rgba(0,123,255,0.1)"/><path d="M250.836,184.066c21.934,4.532,41.3,7.419,69.13,12.579C309.276,278.149,181.541,245.781,250.836,184.066Zm114.047-74.872c-1.44-24.472-8.584-56.575-65.489-51.544-26.675,4.2-46.385,21.877-55.655,52.374-5.091,16.768-2.131,40.3,3.875,54.414,5.483,9.943,3.618,9.332,9.512,11.22,22.811,3.1,45.393,6.533,68.389,10.033C348.877,175.735,368.064,122.889,364.884,109.193Zm-175.612-1.878c6-14.111,8.962-37.647,3.873-54.414C183.882,22.4,164.169,4.724,137.489.526,80.585-4.5,73.441,27.6,72,52.071c-3.18,13.693,16.009,66.543,39.373,76.495,22.995-3.5,45.573-6.929,68.391-10.033C185.651,116.647,183.786,117.258,189.272,107.315Zm-72.357,32.209c10.687,81.5,138.422,49.136,69.128-12.579C164.109,131.478,144.742,134.365,116.915,139.524Z" transform="translate(56.845 -120.346)" fill="rgba(0,123,255,0.1)"/><path d="M57.75.562C25.855.562,0,27.537,0,60.813s25.855,60.25,57.75,60.25,57.75-26.974,57.75-60.25S89.645.562,57.75.562ZM55.109,58.925a3.7,3.7,0,0,1-3.195,1.888h-.072a3.65,3.65,0,0,0-2.634,1.139l-1.318,1.375a2,2,0,0,0,0,2.748l1.318,1.375A3.975,3.975,0,0,1,50.3,70.2v2.276a3.808,3.808,0,0,1-3.726,3.887H45.152a3.71,3.71,0,0,1-3.332-2.15L36.552,63.223a1.823,1.823,0,0,0-2.983-.505l-4.534,4.728A3.65,3.65,0,0,1,26.4,68.584H11.832a50.519,50.519,0,0,1-.654-7.772c0-26.792,20.892-48.589,46.573-48.589A44.618,44.618,0,0,1,72.1,14.609L60.421,23.97a1.986,1.986,0,0,0,.2,3.355l2.522,1.314A3.907,3.907,0,0,1,65.2,32.116V51.095a1.9,1.9,0,0,1-1.863,1.944h-.713a1.853,1.853,0,0,1-1.665-1.074,1.012,1.012,0,0,0-1.807-.073l-4.045,7.033ZM95.008,85.7a3.975,3.975,0,0,1-1.092,2.748L91.687,90.77a3.65,3.65,0,0,1-2.634,1.139h-3.53A3.65,3.65,0,0,1,82.89,90.77l-3.03-3.161a6.06,6.06,0,0,0-5.919-1.71l-4.953,1.292a3.548,3.548,0,0,1-.9.117H65.677a3.65,3.65,0,0,1-2.634-1.139L60.27,83.275a1.989,1.989,0,0,1-.545-1.375V79.422A1.946,1.946,0,0,1,60.9,77.617l9.161-3.824a6.168,6.168,0,0,0,1.3-.741l5.521-4.1a1.806,1.806,0,0,1,1.08-.36h2.815a1.863,1.863,0,0,1,1.721,1.2l1.246,3.122a.932.932,0,0,0,.859.6h.885a.938.938,0,0,0,.894-.7l.978-3.515a.937.937,0,0,1,.894-.7h1.411a.952.952,0,0,1,.931.972V72.7a1.989,1.989,0,0,0,.545,1.375l2.773,2.893a3.975,3.975,0,0,1,1.092,2.748V85.7Z" transform="translate(557 199.438)" fill="rgba(0,123,255,0.1)"/><path d="M69.054,168.53C10.811,97.768,0,90.506,0,64.5,0,28.878,34.458,0,76.964,0s76.964,28.878,76.964,64.5c0,26.006-10.811,33.268-69.054,104.03-3.822,4.627-12,4.627-15.819,0Zm7.91-77.155c17.711,0,32.068-12.032,32.068-26.875S94.675,37.625,76.964,37.625,44.9,49.657,44.9,64.5,59.253,91.375,76.964,91.375Z" transform="translate(1842.712 324)" fill="rgba(0,123,255,0.1)"/><path d="M89.662,1.5H47.081V14.262H89.662ZM61.275,84.452H75.469V46.167H61.275Zm56.988-42.178,10.078-9.061a74.979,74.979,0,0,0-10.007-9l-10.078,9.061A68.17,68.17,0,0,0,68.372,20.643C33.1,20.643,4.5,46.358,4.5,78.071S33.029,135.5,68.372,135.5s63.872-25.715,63.872-57.429A53.72,53.72,0,0,0,118.263,42.274ZM68.372,122.738c-27.465,0-49.678-19.972-49.678-44.667S40.907,33.4,68.372,33.4,118.05,53.377,118.05,78.071,95.837,122.738,68.372,122.738Z" transform="translate(205.5 878.5)" fill="rgba(0,123,255,0.1)"/><line x2="248" y2="196" transform="translate(1385.5 29.5)" fill="none" stroke="rgba(110,93,242,0.5)" stroke-width="1"/><rect width="206" height="52" rx="8" transform="translate(1430 1057)" fill="none"/><line x1="338" y1="341" transform="translate(297.215 846.5)" fill="none" stroke="rgba(110,93,242,0.5)" stroke-width="1"/><line y1="134" x2="28" transform="translate(1046.742 1057.5)" fill="none" stroke="rgba(110,93,242,0.5)" stroke-width="1"/><rect width="206" height="52" rx="8" transform="translate(1488 55)" fill="none"/><ellipse cx="39.68" cy="30.95" rx="39.68" ry="30.95" transform="translate(398.88 227.415)" fill="#3f3d56"/><circle cx="57.14" cy="57.14" r="57.14" transform="translate(460.78 305.975)" fill="#3f3d56"/><circle cx="14.28" cy="14.28" r="14.28" transform="translate(684.97 855.555)" fill="#3f3d56"/><circle cx="14.28" cy="14.28" r="14.28" transform="translate(610.38 855.555)" fill="#3f3d56"/><rect width="6.35" height="175.39" transform="translate(640.53 525.415)" fill="#3f3d56"/><rect width="6.35" height="175.39" transform="translate(674.65 525.415)" fill="#3f3d56"/><path d="M747,415.92l-1.59-4.76s17.46-20.63,42.06-4l-1.59,7.15h-6.35s-10.31-8.65-27.77,1.23Z" transform="translate(-104.92 114.255)" fill="#3f3d56"/><rect width="57.14" height="73.01" transform="translate(478.24 500.415)" fill="#fbbebe"/><rect width="17.46" height="34.92" transform="translate(557.6 479.775)" fill="#fbbebe"/><path d="M590.7,741.3l-7.14,21.43s-3.18,15.87,7.14,16.66,27-2.38,27-2.38,2.38-7.14,0-13.49-9.52-23.81-9.52-23.81Z" transform="translate(-104.92 114.255)" fill="#3c354c"/><path d="M644.66,742.09s-11.11,27.78-2.38,32.54,20.64.79,30.16,4.76,35.71-5.55,35.71-5.55,3.18-8.73-14.28-11.11c0,0-19-14.29-19-17.46s-11.11-3.18-11.11-3.18Z" transform="translate(-104.92 114.255)" fill="#3c354c"/><path d="M642.28,425.45s-65.07,13.49-73,9.52-15.87,54-15.87,54-3.18,34.92,7.93,81.74,0,69.84,0,69.84,1.59,44.44,13.5,65.08,11.9,39.68,11.9,39.68,23,2.38,23.81-3.18c0,0-9.53-22.22-7.94-42.85s-4.76-60.32-4.76-60.32,10.32-50,8.73-69,5.56-59.52,9.52-52.38,14.29,42.06,14.29,49.21,4,54.75,6.35,57.93,1.58,12.7.79,17.46-.79,40.47,3.17,59.52.8,40.47,1.59,43.65,23.81.79,24.6-4.77c0,0,3.18-34.12,4.77-38.88S674,636.54,674,636.54s1.58-46.82,3.17-51.58,4-107.14-6.35-119-6.35-42.06-6.35-42.06Z" transform="translate(-104.92 114.255)" fill="#3f3d56"/><path d="M588.79,287.2c-2.94,5.54-5.9,11.13-7.74,17.14s-2.48,12.52-.75,18.56a46,46,0,0,0,5.12,10.7,36.7,36.7,0,0,0,6.47,8.64c6,5.48,14.72,6.58,22.82,7.44a11.559,11.559,0,0,0,4.19-.07,7.92,7.92,0,0,0,3-1.64c3.55-3,5.16-7.58,6.46-12a198,198,0,0,0,6.62-32.14,14.891,14.891,0,0,0,0-5.2c-.7-3-3.1-5.33-4.84-7.91a20.17,20.17,0,0,1-3.44-10.4c-.07-1.81,0-3.81-1.14-5.19a7,7,0,0,0-2.69-1.66c-4.73-2-9.45-4-14.19-5.92-2.86-1.18-8-4.32-11-2-2.57,2-1.33,6.64-2.43,9.42C593.56,279.19,590.91,283.2,588.79,287.2Z" transform="translate(-104.92 114.255)" fill="#fbbebe"/><path d="M588.79,287.2c-2.94,5.54-5.9,11.13-7.74,17.14s-2.48,12.52-.75,18.56a46,46,0,0,0,5.12,10.7,36.7,36.7,0,0,0,6.47,8.64c6,5.48,14.72,6.58,22.82,7.44a11.559,11.559,0,0,0,4.19-.07,7.92,7.92,0,0,0,3-1.64c3.55-3,5.16-7.58,6.46-12a198,198,0,0,0,6.62-32.14,14.891,14.891,0,0,0,0-5.2c-.7-3-3.1-5.33-4.84-7.91a20.17,20.17,0,0,1-3.44-10.4c-.07-1.81,0-3.81-1.14-5.19a7,7,0,0,0-2.69-1.66c-4.73-2-9.45-4-14.19-5.92-2.86-1.18-8-4.32-11-2-2.57,2-1.33,6.64-2.43,9.42C593.56,279.19,590.91,283.2,588.79,287.2Z" transform="translate(-104.92 114.255)" opacity="0.1"/><circle cx="27.78" cy="27.78" r="27.78" transform="translate(487.36 347.645)" fill="#fbbebe"/><path d="M629.81,331.23c-5.26,1.89-10.69,3.52-16.28,3.72a53.89,53.89,0,0,1-12.45-1.33,158.092,158.092,0,0,1-24.78-7.07c-1.72,3.39-2.18,7.26-2.33,11.06-.43,11.49,1.86,22.89,2.74,34.36,1.11,14.58,0,29.48,3.75,43.6a12,12,0,0,1,2.68-6.54,14.84,14.84,0,0,1,4.49-3.3,35.8,35.8,0,0,1,24.58-3.06c4.81,1.14,9.92,3.27,14.48,1.36,2.72-1.15,4.69-3.57,6.2-6.11a50.221,50.221,0,0,0,5.42-14.69c3-13.24,3.4-26.93,3.76-40.51.1-3.63,1.66-14.42-1.35-17.08-2.11-1.85-2.73.79-4.25,2.17A19.43,19.43,0,0,1,629.81,331.23Z" transform="translate(-104.92 114.255)" fill="#f2f2f2"/><path d="M590.71,283.54c-1.85-1.45-4.59-1-6.63.23s-3.69,2.93-5.76,4.05c-5.74,3.11-13.45.83-18.9,4.45-5.12,3.41-6,10.43-6.4,16.57-1,15.6-1.86,31.31-5.61,46.49-1,4-2.2,8.1-1.82,12.22a32.428,32.428,0,0,0,1.66,6.9l4.92,15.37c2.28,7.14,4.59,14.39,4.83,21.88s-1.52,14.61-3.27,21.76A255.216,255.216,0,0,0,547,476.37c-.31,4.79-.44,9.79,1.5,14.18,2,4.59,6.06,8,10.34,10.59s8.93,4.59,13.12,7.34c8.41,5.53,15.16,14.24,25,16.51a34,34,0,0,0,13.77-.28s-2.57-116.72-9.72-133.39-13.49-88.88-13.49-91.26S590.71,283.54,590.71,283.54Z" transform="translate(-104.92 114.255)" fill="#0075f2"/><path d="M629.33,287.36s37.55,0,43.11,19.84-15.87,52.38-15.87,52.38,8.73,64.28,12.69,70.63,2.39,19,2.39,19a52.509,52.509,0,0,1,1.58,27c-3.17,14.28-15.08,39.68-15.08,39.68s-15.87,0-19.84,9.52-4.76-41.27-4.76-41.27-14.28-92.85-13.49-98.4,4.76-51.59,6.35-64.29S631.46,292.12,629.33,287.36Z" transform="translate(-104.92 114.255)" fill="#0075f2"/><path d="M658.15,300.06s18.26,5.55,18.26,11.9S682,352.43,682,363.54s-2.38,12.7,0,16.67-25.39,2.38-25.39,2.38l-5.05-45.23Z" transform="translate(-104.92 114.255)" fill="#0075f2"/><path d="M550.22,357.2s35.72,2.38,42.07-2.39,33.33,6.35,35.71,12.7-38.1,7.14-44.44,7.14-36.51,9.53-36.51,9.53Z" transform="translate(-104.92 114.255)" fill="#a0616a"/><path d="M476.69,726.87s-16.65,42-8,47,99.86,1.44,99.86,1.44,15.19-9.4-2.17-15.92c0,0-14.48-.72-23.88-6.51s-20.27-16.64-20.27-16.64-.72-15.92-6.51-12.3a14.86,14.86,0,0,0-6.51,10.13Z" transform="translate(-104.92 114.255)" fill="#3f3d56"/><path d="M476.69,726.87s-16.65,42-8,47,99.86,1.44,99.86,1.44,15.19-9.4-2.17-15.92c0,0-14.48-.72-23.88-6.51s-20.27-16.64-20.27-16.64-.72-15.92-6.51-12.3a14.86,14.86,0,0,0-6.51,10.13Z" transform="translate(-104.92 114.255)" opacity="0.1"/><path d="M451,739.71s-18.25,46-8.73,51.58,109.52,1.59,109.52,1.59,16.67-10.31-2.38-17.46c0,0-15.87-.79-26.19-7.14S501,750,501,750s-.79-17.46-7.14-13.49a16.28,16.28,0,0,0-7.14,11.11Z" transform="translate(-104.92 114.255)" fill="#3f3d56"/><path d="M544.67,447.67l-11.11,100s-4,47.62-15.87,57.93c0,0,0,15.08-4,19.84l-5.56,62.7s7.94,23,7.15,27,3.17,16.66,2.38,18.25-38.1,0-38.1,0l7.94-127.77,24.6-177.76Z" transform="translate(-104.92 114.255)" fill="#3c354c"/><path d="M544.67,447.67l-11.11,100s-4,47.62-15.87,57.93c0,0,0,15.08-4,19.84l-5.56,62.7s7.94,23,7.15,27,3.17,16.66,2.38,18.25-38.1,0-38.1,0l7.94-127.77,24.6-177.76Z" transform="translate(-104.92 114.255)" opacity="0.1"/><path d="M524.83,444.49s-8.73,81.74-12.7,99.2a225.329,225.329,0,0,0-4.76,34.92s-.79,25.4-7.94,32.54A21.43,21.43,0,0,0,493.09,627s-7.15,80.15-3.18,89.68,7.94,17.46,4,23.8-47.62,6.35-47.62,1.59,0-8.73-2.38-11.11,0-17.46,0-17.46-9.52-70.63-.79-91.26,12.7-77,12.7-77-6.35-64.28-14.29-74.6,1.59-46.82,1.59-46.82Z" transform="translate(-104.92 114.255)" fill="#3c354c"/><path d="M502.49,190.65c.92,2.1,3.13,3.27,5.14,4.38,11.65,6.42,21.4,15.73,31,24.93a36.43,36.43,0,0,1,1.45-24.63c1.14-2.65,2.65-5.51,1.83-8.28-.61-2-2.34-3.52-4-4.82a124.584,124.584,0,0,0-12.27-8.37c-3-1.78-9.08-6.51-12.49-6-.18,4.61-.27,8.73-2.29,13C510.36,181.92,502.84,191.45,502.49,190.65Z" transform="translate(-104.92 114.255)" fill="#a0616a"/><circle cx="32.54" cy="32.54" r="32.54" transform="translate(405.62 250.025)" fill="#a0616a"/><path d="M544.67,245.3s5.55-27.78-10.32-37.3-34.12-20.63-34.12-20.63-5.56-.8-7.94,11.11c0,0-45.23,8.73-50,51.58s3.18,105.55,3.18,105.55-7.14,54.76-15.87,84.12c0,0-7.15,6.35,24.6-3.17s87.29,27,87.29,27,5.56-5.56,5.56-9.53,6.35-27,6.35-27,5.55-97.61,7.93-108.72S551.81,246.89,544.67,245.3Z" transform="translate(-104.92 114.255)" fill="#3f3d56"/><path d="M495.47,300.06s43.64-25.4,34.91-57.94-27.77-42.85-27.77-42.85-30.95-10.32-57.14,23l1.59,15.08s28.57-57.93,59.52-21.43S495.47,300.06,495.47,300.06Z" transform="translate(-104.92 114.255)" fill="#0075f2"/><path d="M448.64,223.87V354l-8.11,44.39-3.79,20.69H409l-38.88-14.29v-96s32.53-64.29,42.85-76.19S448.64,223.87,448.64,223.87Z" transform="translate(-104.92 114.255)" fill="#0075f2"/><path d="M106.6,292.66l-3.78,20.69H75.04L36.16,299.07Z" transform="translate(229 219.995)" opacity="0.1"/><path d="M105.2,264.94l68.25-83.33-60.32,86.51-6.35,1.58Z" transform="translate(229 219.995)" fill="#0075f2"/><path d="M535.41,171.67c1.85-1.25,4.17-1.48,6.39-1.7s4.54-.52,6.31-1.88c3.07-2.36,3.3-6.92,5.55-10.07,3.25-4.57,9.74-5.12,15.35-4.9,3.43.14,7.12.35,10-1.5s4.3-5.5,5.3-8.87c1.19-4,1.95-8.88-1-11.84-2-2.06-5.24-2.47-7.5-4.28s-3.31-4.92-4.58-7.63a20.66,20.66,0,0,0-6.65-8.33c-4.26-3-9.7-3.62-14.89-3.57s-10.4.74-15.55.1c-4.22-.52-8.43-1.92-12.63-1.3-5.36.79-9.79,4.84-12.44,9.57s-3.77,10.13-4.87,15.43l-3,14.43c-.92,4.48-1.85,9.07-1.14,13.58,1.48,9.36,9.76,16.8,10.33,26.25a16.11,16.11,0,0,1,9.84-11.69,3.11,3.11,0,0,1,2-.25c.82.27,1.3,1.09,1.82,1.78,1.36,1.81,5.63,4.55,8,3.27C534.31,177.12,532.69,173.52,535.41,171.67Z" transform="translate(-104.92 114.255)" fill="#3f3d56"/><path d="M743.07,575.44s-21.43.79-24.6,25.39,0,138.88,0,138.88,24.6,18.25,54.76,15.87,78.56-11.11,78.56-11.11v-134c0-20-16.68-36.31-36.66-35.16a12.965,12.965,0,0,0-1.43.11Z" transform="translate(-104.92 114.255)" fill="#3c354c"/><circle cx="14.28" cy="14.28" r="14.28" transform="translate(654.82 859.526)" fill="#3f3d56"/><circle cx="14.28" cy="14.28" r="14.28" transform="translate(732.59 853.175)" fill="#3f3d56"/><path d="M453.41,319.9s-5.56,34.91,17.45,31.74c0,0,11.91-1.59,13.5,0s60.31-8.73,68.25-17.46c0,0,9.52-3.17,14.28,1.59S619.27,345.29,605,331s-36.5-17.46-36.5-17.46l-30.16,1.58s-15.87,4.77-25.39,0S476.42,312,476.42,312Z" transform="translate(-104.92 114.255)" fill="#a0616a"/><path d="M485.94,209.59s-35.71,4-35.71,55.55V331s19.84-8.73,23.81-7.94,19.84-10.32,19.84-10.32S512.13,269.9,510.54,258,509.75,211.17,485.94,209.59Z" transform="translate(-104.92 114.255)" fill="#3f3d56"/><path d="M315.5,231.61l-35.71,25.4,22.22,2.38,30.95-26.19Z" transform="translate(229 219.995)" fill="#3f3d56"/><path d="M677.2,375.45s8.73,27-3.17,34.92-31.75-27.78-31.75-27.78-21.43-25.39-7.14-30.95,20.12,18.65,20.12,18.65L674,386.56Z" transform="translate(-104.92 114.255)" fill="#fbbebe"/><ellipse cx="31.74" cy="20.24" rx="31.74" ry="20.24" transform="translate(486.18 334.545)" fill="#3f3d56"/><circle cx="23.01" cy="23.01" r="23.01" transform="translate(500.46 282.975)" fill="#3f3d56"/><ellipse cx="30.55" cy="15.87" rx="30.55" ry="15.87" transform="translate(407.61 246.465)" fill="#3f3d56"/><ellipse cx="10.71" cy="26.59" rx="10.71" ry="26.59" transform="translate(398.88 238.515)" fill="#3f3d56"/><path d="M355.09,778.54c3-5.51-.4-12.26-4.28-17.18s-8.62-10-8.52-16.29c.15-9,9.7-14.31,17.33-19.08a84.445,84.445,0,0,0,15.56-12.51,22.56,22.56,0,0,0,4.78-6.4c1.58-3.52,1.54-7.52,1.44-11.38q-.5-19.26-1.91-38.48" transform="translate(-104.92 114.255)" fill="none" stroke="#3f3d56" stroke-miterlimit="10" stroke-width="4"/><path d="M394,656.51a14,14,0,0,0-7-11.5l-3.14,6.22.1-7.52A14,14,0,1,0,394,656.51Z" transform="translate(-104.92 114.255)" fill="#57b894"/><path d="M369,751.51a14,14,0,1,1,.68-11.3l-8.77,7.13,9.65-2.24a13.89,13.89,0,0,1-1.56,6.41Z" transform="translate(-104.92 114.255)" fill="#57b894"/><path d="M362,724.26a14,14,0,0,1-14.67-13.37,13.82,13.82,0,0,1,1.21-6.39,14.06,14.06,0,0,1,9-7.78l-.07,5.79,3.17-6.29h0a14,14,0,0,1,14.67,13.37,13.84,13.84,0,0,1-.6,4.79A14,14,0,0,1,362,724.26Z" transform="translate(-104.92 114.255)" fill="#57b894"/><path d="M396.11,701.59a14,14,0,1,1,6.21-26.27l-2.48,6.8,5.1-4.9a14,14,0,0,1-8.83,24.37Z" transform="translate(-104.92 114.255)" fill="#57b894"/><path d="M392.11,660.25c-3.23.36-6.39,1.37-9.64,1.57s-6.82-.58-8.87-3.11c-1.11-1.36-1.67-3.08-2.6-4.56a10.05,10.05,0,0,0-3.53-3.33,14,14,0,1,0,26.23,9.32C393.17,660.16,392.64,660.2,392.11,660.25Z" transform="translate(-104.92 114.255)" opacity="0.1"/><path d="M396.11,701.59a14.06,14.06,0,0,1-13.35-20,10.3,10.3,0,0,1,2.83,2.83c1,1.51,1.6,3.25,2.78,4.64,2.18,2.57,5.92,3.41,9.3,3.25s6.66-1.11,10-1.42c.47,0,.95-.08,1.42-.09A14,14,0,0,1,396.11,701.59Z" transform="translate(-104.92 114.255)" opacity="0.1"/><path d="M362,724.26a14,14,0,0,1-14.67-13.37,13.82,13.82,0,0,1,1.21-6.39,11.319,11.319,0,0,1,3,2.85c1.09,1.54,1.77,3.31,3,4.73,2.37,2.64,6.35,3.57,9.94,3.48s6.82-.93,10.27-1.19A14,14,0,0,1,362,724.26Z" transform="translate(-104.92 114.255)" opacity="0.1"/><path d="M369,751.51a14.013,14.013,0,0,1-25.58-11.45,14.25,14.25,0,0,1,3.08,2.74c1.33,1.63,2.21,3.47,3.75,5,2.87,2.82,7.5,4,11.63,4.09a62.159,62.159,0,0,0,7.12-.38Z" transform="translate(-104.92 114.255)" opacity="0.1"/><path d="M333.92,772.2s11.08-.34,14.42-2.72,17-5.22,17.87-1.4,16.64,19,4.14,19.06-29.06-1.95-32.39-4S333.92,772.2,333.92,772.2Z" transform="translate(-104.92 114.255)" fill="#656380"/><path d="M370.57,785.81c-12.51.1-29.06-1.95-32.39-4-2.54-1.54-3.55-7.09-3.89-9.65h-.37s.7,8.93,4,11,19.88,4.08,32.39,4c3.61,0,4.85-1.31,4.79-3.22C374.63,785.07,373.26,785.79,370.57,785.81Z" transform="translate(-104.92 114.255)" opacity="0.2"/></g></svg>