<?xml version="1.0" encoding="utf-8"?>
<!-- Svg Vector Icons : http://www.onlinewebfonts.com/icon -->
<!DOCTYPE svg PUBLIC "-//W3C//DTD SVG 1.1//EN" "http://www.w3.org/Graphics/SVG/1.1/DTD/svg11.dtd">
<svg version="1.1" xmlns="http://www.w3.org/2000/svg" xmlns:xlink="http://www.w3.org/1999/xlink" x="0px" y="0px" viewBox="0 0 1000 1000" enable-background="new 0 0 1000 1000" xml:space="preserve">
<metadata> Svg Vector Icons : http://www.onlinewebfonts.com/icon </metadata>
<g><g transform="translate(0.000000,511.000000) scale(0.100000,-0.100000)"><path d="M239.5,4701.3c-62.7-33.9-125.4-78.3-138.4-99.2c-18.3-28.7,195.9-647.7,705.1-2044.9c402.2-1102.1,736.5-2011,741.7-2016.2c5.2-5.2,1658.4-101.9,3672-214.2C7233.5,214.5,8881.5,117.8,8881.5,110c0-7.8-1647.9-104.5-3661.6-216.8c-2013.6-112.3-3666.8-208.9-3672-214.2c-5.2-5.2-339.5-914.1-741.7-2016.2C296.9-3734.4,82.8-4353.3,101.1-4382c13.1-20.9,75.7-65.3,138.4-99.2c99.2-52.2,143.6-60.1,323.8-52.2c195.9,10.4,242.9,26.1,744.3,240.3c3194,1376.3,5912.8,2650.8,7234.3,3387.3C9364.6-448.9,9900-46.7,9900,110c0,94-258.6,336.9-600.7,561.5C8184.1,1408,5324.4,2781.7,1307.7,4513.2c-501.4,214.2-548.4,229.8-744.3,240.3C383.1,4761.4,338.7,4753.5,239.5,4701.3z"/></g></g>
</svg>